<?xml version="1.0" encoding="UTF-8"?>
<svg version="1.1" xmlns="http://www.w3.org/2000/svg" width="1024" height="1024">
<path d="M0 0 C337.92 0 675.84 0 1024 0 C1024 337.92 1024 675.84 1024 1024 C686.08 1024 348.16 1024 0 1024 C0 686.08 0 348.16 0 0 Z " fill="#F5EEDD" transform="translate(0,0)"/>
<path d="M0 0 C2.4576637 2.4576637 2.30631805 3.93963444 2.38061523 7.30493164 C2.31508987 32.91965167 -6.92628131 54.80986444 -25 73 C-35.1025767 82.65285946 -47.08481827 88.11689611 -59.875 93.3125 C-60.49955078 93.56676758 -61.12410156 93.82103516 -61.76757812 94.08300781 C-65.25989517 95.45724759 -68.56611203 96.29833963 -72.25 96.9375 C-80.49937412 99.29446403 -85.13173863 109.05414168 -89.16552734 116.00976562 C-98.81281754 133.38777968 -106.2438806 153.0746623 -106.09765625 173.12109375 C-106.0962413 173.86585464 -106.09482635 174.61061554 -106.09336853 175.37794495 C-106.08781989 177.73117273 -106.07527733 180.0843015 -106.0625 182.4375 C-106.05747835 184.04361841 -106.05291661 185.64973832 -106.04882812 187.25585938 C-106.03786735 191.17061043 -106.02063884 195.08528849 -106 199 C-103.36081356 193.94991117 -101.28235462 189.15912109 -99.625 183.6875 C-95.91530581 172.13424696 -90.56054008 163.59089661 -82 155 C-81.45859375 154.43539062 -80.9171875 153.87078125 -80.359375 153.2890625 C-68.41066701 141.8834776 -50.55662476 137.4103387 -34.49902344 137.66113281 C-10.52059691 138.47940309 -10.52059691 138.47940309 -4 145 C-3.84158694 154.5047838 -7.31070312 158.62140624 -12 168 C0.54 168 13.08 168 26 168 C25.95359375 164.72578125 25.9071875 161.4515625 25.859375 158.078125 C25.82818156 154.90756785 25.80389249 151.73702779 25.78027344 148.56640625 C25.76015581 146.3625524 25.73285828 144.15875193 25.69824219 141.95507812 C25.64973167 138.78762644 25.62703264 135.62088032 25.609375 132.453125 C25.58872986 131.46757629 25.56808472 130.48202759 25.54681396 129.46661377 C25.5445728 122.63719468 25.5445728 122.63719468 27.87426758 119.37768555 C31.69957072 116.89850952 35.61577944 117.39699232 40 118 C44.51315789 120.02631579 44.51315789 120.02631579 46 123 C46.08934406 124.41973273 46.11758978 125.84357791 46.11352539 127.26611328 C46.11344986 128.14687531 46.11337433 129.02763733 46.11329651 129.93508911 C46.10813522 130.88721283 46.10297394 131.83933655 46.09765625 132.8203125 C46.09553383 134.28100662 46.09553383 134.28100662 46.09336853 135.77120972 C46.08775973 138.88917073 46.07520573 142.0070606 46.0625 145.125 C46.05748613 147.23567605 46.05292303 149.34635322 46.04882812 151.45703125 C46.03778745 156.63804521 46.02104073 161.81901752 46 167 C46.6705542 166.97381592 47.3411084 166.94763184 48.03198242 166.9206543 C51.08358128 166.81642762 54.13480542 166.75159377 57.1875 166.6875 C58.77014648 166.6246582 58.77014648 166.6246582 60.38476562 166.56054688 C68.18129021 166.4375733 68.18129021 166.4375733 72.20703125 169.203125 C74.11068978 172.17266641 74.62916611 173.58039696 74.5 177.0625 C74.4896875 177.89910156 74.479375 178.73570312 74.46875 179.59765625 C73.90887629 182.46700902 72.99791365 183.88428483 71 186 C63.08798382 188.63733873 54.33999734 187 46 187 C46 225.61 46 264.22 46 304 C53.26 304 60.52 304 68 304 C73 307 73 307 74 308 C74.16796875 309.9609375 74.16796875 309.9609375 74.1875 312.375 C74.20167969 313.16648437 74.21585938 313.95796875 74.23046875 314.7734375 C74 317 74 317 72 320 C64 322 64 322 46 322 C46 358.63 46 395.26 46 433 C54.25 433 62.5 433 71 433 C74.41554054 437.55405405 74.41554054 437.55405405 74.375 441.5 C74.38273437 442.2528125 74.39046875 443.005625 74.3984375 443.78125 C73.88277489 446.65278294 73.03561682 447.90832721 71 450 C68.36450195 450.45410156 68.36450195 450.45410156 65.23828125 450.390625 C63.56088867 450.37128906 63.56088867 450.37128906 61.84960938 450.3515625 C60.09874023 450.30128906 60.09874023 450.30128906 58.3125 450.25 C57.13365234 450.23195313 55.95480469 450.21390625 54.74023438 450.1953125 C51.82601074 450.14811859 48.91340969 450.08229077 46 450 C46.01879211 450.98240913 46.01879211 450.98240913 46.03796387 451.98466492 C46.17011231 458.91380544 46.29943436 465.84299495 46.42724609 472.7722168 C46.4750503 475.34482102 46.5235322 477.91741275 46.57275391 480.48999023 C46.71341826 487.85477376 46.83926049 495.21954121 46.94580078 502.5848999 C46.99723877 505.82601435 47.06614322 509.06638563 47.13671875 512.30712891 C47.16504819 514.19041512 47.1924556 516.07371553 47.21875 517.95703125 C47.24199341 518.79546066 47.26523682 519.63389008 47.28918457 520.49772644 C47.33382746 525.41523661 46.7479463 528.74109959 44 533 C40.30274625 534.84862688 36.03538558 534.47587094 32 534 C29.06576805 532.20353146 27.52794645 531.0558929 26 528 C25.90715501 525.52806831 25.87418183 523.08472177 25.88647461 520.61279297 C25.88629381 519.45270564 25.88629381 519.45270564 25.88610935 518.26918221 C25.88685707 515.76015494 25.89447893 513.25120151 25.90234375 510.7421875 C25.9038136 509.19539424 25.90483405 507.64860049 25.90539551 506.10180664 C25.91064335 500.35953019 25.9246045 494.61726437 25.9375 488.875 C25.958125 476.04625 25.97875 463.2175 26 450 C-23.5 450 -73 450 -124 450 C-125.67222927 458.36114636 -126.34134576 465.64622862 -126.31567383 474.02954102 C-126.31253058 476.16670636 -126.33599022 478.30245947 -126.36132812 480.43945312 C-126.419374 492.93011488 -124.34902838 504.50683188 -120.5625 516.4375 C-120.35222168 517.10434814 -120.14194336 517.77119629 -119.92529297 518.45825195 C-118.76038985 522.04469632 -117.42412087 525.37562352 -115.625 528.6875 C-114 532 -114 532 -113.75 534.6875 C-115.81802408 538.51334455 -119.08033654 540.29124991 -123 542 C-126.75 542.625 -126.75 542.625 -130 542 C-143.89314931 526.95132764 -147.37177717 499.8621099 -147.3125 480.3125 C-147.32861328 479.26900391 -147.34472656 478.22550781 -147.36132812 477.15039062 C-147.3652816 470.62321149 -146.6673363 464.464154 -145.47729492 458.06713867 C-145.26512455 456.89777897 -145.26512455 456.89777897 -145.04866791 455.70479584 C-144.70294848 453.80249598 -144.35201503 451.90114494 -144 450 C-145.12006943 450.00222061 -146.24013885 450.00444122 -147.39414978 450.00672913 C-157.97225295 450.02703924 -168.55035214 450.04201 -179.12847042 450.05181217 C-184.56620537 450.05702103 -190.00392453 450.06408229 -195.44165039 450.07543945 C-200.69361589 450.08633945 -205.94556624 450.09229188 -211.19754219 450.09487724 C-213.19689739 450.0967187 -215.1962518 450.10031453 -217.19560051 450.10573006 C-220.00533691 450.11303495 -222.81501143 450.11398698 -225.62475586 450.11352539 C-226.44331558 450.11712067 -227.26187531 450.12071594 -228.10523987 450.12442017 C-233.47443296 450.11493396 -238.67184777 449.67098604 -244 449 C-243.99333817 449.96386627 -243.98667633 450.92773254 -243.97981262 451.92080688 C-243.91894313 461.01347864 -243.87399934 470.10610894 -243.84456348 479.19893837 C-243.82892135 483.87343476 -243.80770962 488.54776639 -243.77368164 493.22216797 C-243.74103637 497.73497508 -243.72313606 502.24762391 -243.71536827 506.76054001 C-243.70983404 508.4804979 -243.69902697 510.20044734 -243.68280983 511.92033768 C-243.66096661 514.33331126 -243.65803591 516.74563453 -243.65942383 519.15869141 C-243.648638 519.86647736 -243.63785217 520.57426331 -243.6267395 521.30349731 C-243.65636491 526.07742018 -244.49534034 530.49534034 -248 534 C-249.7872057 534.15135944 -251.58161876 534.22175778 -253.375 534.25 C-254.35210937 534.27578125 -255.32921875 534.3015625 -256.3359375 534.328125 C-259 534 -259 534 -260.7890625 532.671875 C-263.50997162 528.91526499 -263.13563893 524.91900182 -263.11352539 520.49926758 C-263.11367142 519.73805099 -263.11381744 518.97683441 -263.1139679 518.19255066 C-263.11327124 515.6765152 -263.10549038 513.16055378 -263.09765625 510.64453125 C-263.09579119 508.90004008 -263.0943677 507.1555484 -263.09336853 505.41105652 C-263.08955026 500.81941278 -263.07972584 496.22780067 -263.06866455 491.63616943 C-263.05843561 486.95081002 -263.05386773 482.26544549 -263.04882812 477.58007812 C-263.03810298 468.38670485 -263.02103481 459.19335506 -263 450 C-263.7113208 450.01571045 -264.4226416 450.0314209 -265.15551758 450.04760742 C-268.37443104 450.10991915 -271.59321768 450.14897867 -274.8125 450.1875 C-276.49182617 450.22520508 -276.49182617 450.22520508 -278.20507812 450.26367188 C-279.27822266 450.27333984 -280.35136719 450.28300781 -281.45703125 450.29296875 C-282.44678955 450.3086792 -283.43654785 450.32438965 -284.45629883 450.34057617 C-287 450 -287 450 -288.8215332 448.6574707 C-290.604981 446.14911621 -290.3973205 444.03558813 -290.375 441 C-290.38273437 439.948125 -290.39046875 438.89625 -290.3984375 437.8125 C-290 435 -290 435 -287 432 C-279.08 432 -271.16 432 -263 432 C-263 395.7 -263 359.4 -263 322 C-268.94 322 -274.88 322 -281 322 C-288 321 -288 321 -289.9375 319.5 C-291.5221292 315.7714607 -291.88748555 311.96922673 -291 308 C-287 304 -287 304 -263 303 C-263 264.39 -263 225.78 -263 186 C-269.93 186 -276.86 186 -284 186 C-289 183 -289 183 -290 181 C-290.12114921 179.35744209 -290.17540767 177.70947522 -290.1875 176.0625 C-290.20167969 175.18722656 -290.21585937 174.31195313 -290.23046875 173.41015625 C-290 171 -290 171 -288 168 C-285.47802734 167.56762695 -285.47802734 167.56762695 -282.3359375 167.48828125 C-281.21445312 167.45283203 -280.09296875 167.41738281 -278.9375 167.38085938 C-277.761875 167.35830078 -276.58625 167.33574219 -275.375 167.3125 C-274.19164062 167.27833984 -273.00828125 167.24417969 -271.7890625 167.20898438 C-268.8594694 167.12629425 -265.9301836 167.05721286 -263 167 C-263.01047363 165.75387939 -263.02094727 164.50775879 -263.03173828 163.22387695 C-263.06798744 158.59272138 -263.09091844 153.9615783 -263.10986328 149.33032227 C-263.11990963 147.32737111 -263.13354909 145.32443458 -263.15087891 143.3215332 C-263.17518713 140.43957912 -263.18649687 137.55781928 -263.1953125 134.67578125 C-263.20563507 133.78288895 -263.21595764 132.88999664 -263.22659302 131.970047 C-263.22804027 123.9176939 -263.22804027 123.9176939 -261 120 C-257.11714175 117.67028505 -253.44721704 117.60292705 -249 118 C-244.4 120.2 -244.4 120.2 -243 123 C-243 137.85 -243 152.7 -243 168 C-202.74 168 -162.48 168 -121 168 C-121 165.69 -121 163.38 -121 161 C-120.37212187 158.35644445 -119.69693721 155.78988861 -118.9375 153.1875 C-117.2541871 146.93612102 -116.19631554 141.38309889 -118 135 C-118.47373047 133.23462891 -118.47373047 133.23462891 -118.95703125 131.43359375 C-121.90159705 126.48469635 -125.25531457 126.04550643 -130.625 124.625 C-146.6414415 119.80864591 -159.38009742 113.09049054 -171 101 C-171.66257812 100.34515625 -172.32515625 99.6903125 -173.0078125 99.015625 C-182.0152986 89.56382345 -187.19503906 77.29405941 -191 65 C-191.3196875 63.97261719 -191.639375 62.94523437 -191.96875 61.88671875 C-194.61821829 52.82210269 -194.61821829 52.82210269 -194 48 C-192 46 -192 46 -189.234375 45.734375 C-166.71756946 45.83534722 -146.05322594 50.68027283 -129.3125 66.5625 C-115.12955563 81.51209001 -110.50340579 99.09056101 -108 119 C-103.25943313 111.39909109 -98.97372531 103.56207482 -94.69604492 95.69433594 C-94.00152222 94.42058105 -94.00152222 94.42058105 -93.29296875 93.12109375 C-92.66684692 91.96758423 -92.66684692 91.96758423 -92.02807617 90.79077148 C-91 89 -91 89 -90 88 C-89.83259863 86.55550638 -89.72390354 85.10411843 -89.640625 83.65234375 C-88.21911556 62.46884458 -83.43901912 44.28653141 -69 28 C-68.46890625 27.37480469 -67.9378125 26.74960938 -67.390625 26.10546875 C-52.34633575 9.60888425 -21.98412806 -1.13711007 0 0 Z " fill="#023B1D" transform="translate(622,99)"/>
<path d="M0 0 C34.31579458 -0.04030303 34.31579458 -0.04030303 48.65039062 -0.04882812 C58.56421422 -0.05477128 68.47802934 -0.06177339 78.3918457 -0.07543945 C85.61069608 -0.08538583 92.82953961 -0.09185332 100.04839665 -0.09408849 C103.87308255 -0.09539568 107.69774887 -0.09848203 111.52242851 -0.10573006 C115.11825787 -0.11248954 118.71405946 -0.11461711 122.30989456 -0.11310768 C124.26706037 -0.11351636 126.22422312 -0.11891193 128.18138123 -0.12442017 C129.91255188 -0.12235817 129.91255188 -0.12235817 131.67869568 -0.12025452 C132.688059 -0.12117631 133.69742231 -0.1220981 134.7373724 -0.12304783 C137 0 137 0 138 1 C141.31800639 28.14238015 126.83006928 56.93051859 116.27612305 80.93139648 C112.365858 89.89824794 109.13074558 98.96322611 106.20703125 108.29296875 C105 112 105 112 104 113 C102.06208371 113.10219857 100.1202957 113.13084234 98.1796875 113.1328125 C96.23872192 113.13583374 96.23872192 113.13583374 94.25854492 113.13891602 C92.79736174 113.13479113 91.33617998 113.13013382 89.875 113.125 C89.13279205 113.12378143 88.39058411 113.12256287 87.62588501 113.12130737 C71.8113599 113.09155932 55.99939626 112.83465194 40.1875 112.5625 C38.99372742 112.5429425 37.79995483 112.52338501 36.57000732 112.50323486 C33.10256817 112.44527643 29.63527605 112.38173733 26.16796875 112.31640625 C24.63817131 112.2913224 24.63817131 112.2913224 23.07746887 112.26573181 C15.33426373 112.10953497 7.75490958 111.55392211 0 111 C0 74.37 0 37.74 0 0 Z " fill="#F5EFDE" transform="translate(378,420)"/>
<path d="M0 0 C1.78726753 0.00848969 1.78726753 0.00848969 3.61064148 0.01715088 C7.41141144 0.03951815 11.21123432 0.08971815 15.01171875 0.140625 C17.59048117 0.16068941 20.16925838 0.17894028 22.74804688 0.1953125 C29.0654266 0.23938429 35.38225501 0.3063013 41.69921875 0.390625 C42.81790185 13.22183251 42.84578843 26.00710164 42.83203125 38.87890625 C42.83270611 41.11712149 42.83367766 43.35533665 42.83493042 45.59355164 C42.83639485 50.25044462 42.83429084 54.90731827 42.82958984 59.56420898 C42.82384994 65.54190486 42.82720616 71.51955625 42.83316231 77.49725056 C42.83676521 82.10302571 42.83563134 86.70879019 42.83303452 91.31456566 C42.83236672 93.52066236 42.83318854 95.72676003 42.83551407 97.93285561 C42.83804076 100.99863921 42.83420173 104.0643489 42.82861328 107.13012695 C42.83063751 108.04379532 42.83266174 108.95746368 42.83474731 109.89881897 C42.81349174 116.16207903 42.81349174 116.16207903 41.69921875 118.390625 C17.78012545 118.47448826 -6.12981837 118.24582443 -30.04656982 117.92706299 C-34.72113119 117.86521893 -39.39572313 117.80577653 -44.0703125 117.74609375 C-53.14716572 117.62987028 -62.22398382 117.51112203 -71.30078125 117.390625 C-71.34925705 116.81044113 -71.39773285 116.23025726 -71.44767761 115.63249207 C-72.6463873 100.52972368 -72.6463873 100.52972368 -75.61328125 85.703125 C-75.82766846 84.85065186 -76.04205566 83.99817871 -76.26293945 83.11987305 C-77.7465659 77.28960459 -79.36389389 71.49547633 -80.98828125 65.703125 C-84.64392986 52.66165464 -84.64392986 52.66165464 -85.30078125 47.390625 C-85.47738281 46.24335938 -85.65398438 45.09609375 -85.8359375 43.9140625 C-86.49828093 36.43795622 -85.62446726 30.93541911 -80.86328125 25.140625 C-73.07559285 16.76241852 -61.89958598 17.32360297 -51.20117188 16.62988281 C-39.86046557 15.69437 -23.38532255 10.9534172 -15.35327148 2.29003906 C-10.49404277 -0.73361921 -5.60357601 -0.10012884 0 0 Z " fill="#F5EFDE" transform="translate(606.30078125,284.609375)"/>
<path d="M0 0 C1.02874741 -0.00311188 2.05749481 -0.00622375 3.11741638 -0.00942993 C4.25340775 -0.00744598 5.38939911 -0.00546204 6.55981445 -0.00341797 C7.74523331 -0.00473724 8.93065216 -0.00605652 10.1519928 -0.00741577 C13.39974591 -0.00901858 16.64744149 -0.00561046 19.89518738 0.00082397 C21.91568139 0.00438148 23.9361683 0.00601083 25.95666504 0.00708008 C53.72305222 0.02529256 81.47661288 0.48926969 109.2355957 1.12939453 C110.24679076 38.47906728 110.2355957 75.74887943 110.2355957 113.12939453 C61.3955957 113.12939453 12.5555957 113.12939453 -37.7644043 113.12939453 C-32.7644043 97.12939453 -32.7644043 97.12939453 -25.5144043 93.19189453 C-23.27534962 92.46954391 -21.02757661 91.77220656 -18.7644043 91.12939453 C-18.4344043 90.79939453 -18.1044043 90.46939453 -17.7644043 90.12939453 C-16.04108909 89.99548446 -14.31270351 89.92583452 -12.5847168 89.88330078 C-11.50963867 89.85042969 -10.43456055 89.81755859 -9.3269043 89.78369141 C-7.07437472 89.72353863 -4.82176936 89.66614569 -2.5690918 89.61181641 C18.44502939 88.95201284 37.42484331 82.24685002 52.35668945 66.95751953 C60.64033843 57.33363105 67.71156227 43.61044173 70.2355957 31.12939453 C69.90525762 28.88182279 69.90525762 28.88182279 69.2355957 27.12939453 C47.54262459 24.20918688 24.18574659 25.15826383 5.2355957 37.12939453 C-8.71192136 48.0025523 -16.11220618 61.04735175 -22.7644043 77.12939453 C-23.4244043 77.12939453 -24.0844043 77.12939453 -24.7644043 77.12939453 C-23.1518547 71.93340139 -21.29521757 67.06912382 -19.0144043 62.12939453 C-16.06313715 55.37099275 -13.99321924 48.47899136 -12.0144043 41.37939453 C-11.72082031 40.32623047 -11.42723633 39.27306641 -11.12475586 38.18798828 C-8.52457261 28.6289331 -6.54208538 19.48192867 -6.2019043 9.56689453 C-5.84209522 0.00515979 -5.84209522 0.00515979 0 0 Z " fill="#F2EDDD" transform="translate(538.764404296875,418.87060546875)"/>
<path d="M0 0 C39.6 0 79.2 0 120 0 C120.99 10.23 121.98 20.46 123 31 C125.26182648 46.21592359 128.98315738 60.8726541 133.6875 75.5 C138.94082017 91.86813336 138.94082017 91.86813336 137 98 C131.19987878 94.53395174 130.14444452 89.71389601 128.1875 83.625 C121.56079402 64.32077437 111.91824075 48.5835192 93.140625 39.05664062 C75.60120666 30.84862771 55.98060061 30.18889209 37 33 C36.3813301 50.89559957 45.80264826 70.77072055 57.125 84.1875 C65.12998532 92.65535862 75.1112427 98.92985762 86 103 C86.98613281 103.38027344 87.97226562 103.76054687 88.98828125 104.15234375 C96.74721097 106.76343268 103.49598313 107.14313974 111.625 107.1875 C120.96336539 107.27527655 126.23783448 108.72448278 133.18359375 114.96875 C135 117 135 117 135 118 C90.45 118 45.9 118 0 118 C0 79.06 0 40.12 0 0 Z " fill="#F3EEDE" transform="translate(378,285)"/>
<path d="M0 0 C49.17 0 98.34 0 149 0 C149.6323737 6.32373703 150.18012784 12.48824071 150.3515625 18.81640625 C150.38629166 19.99021095 150.38629166 19.99021095 150.42172241 21.18772888 C150.46883386 22.81854197 150.51412183 24.44940872 150.55761719 26.08032227 C150.62569995 28.58828397 150.70321302 31.09584606 150.78125 33.60351562 C150.82608609 35.19529668 150.87037741 36.78709319 150.9140625 38.37890625 C150.94990952 39.50529259 150.94990952 39.50529259 150.98648071 40.6544342 C151.03013077 42.43576044 151.02055189 44.21825756 151 46 C149.4211316 47.5788684 147.80707663 47.28319742 145.625 47.375 C144.83351563 47.42398438 144.04203125 47.47296875 143.2265625 47.5234375 C141 47 141 47 139.52075195 44.77832031 C138.11623265 42.21234991 136.7556067 39.63670074 135.44140625 37.0234375 C134.97283203 36.105625 134.50425781 35.1878125 134.02148438 34.2421875 C133.04646857 32.32609218 132.07773862 30.40678564 131.11523438 28.484375 C130.64537109 27.56914063 130.17550781 26.65390625 129.69140625 25.7109375 C129.27060791 24.87868652 128.84980957 24.04643555 128.41625977 23.18896484 C125.8380801 19.20414173 122.85209963 17.68782088 118.32207584 16.43857384 C113.13820879 15.45948934 107.82276231 15.51274828 102.5625 15.375 C101.35400391 15.33632813 100.14550781 15.29765625 98.90039062 15.2578125 C95.93374183 15.16400542 92.96709164 15.07830754 90 15 C90.0839834 31.94219449 90.1791474 48.88428462 90.28752708 65.82633972 C90.3375935 73.69328885 90.38403698 81.56022786 90.421875 89.42724609 C90.45487386 96.28621174 90.4947484 103.14509754 90.54279006 110.00397491 C90.56797678 113.63381077 90.58978089 117.2635942 90.60334396 120.89349365 C90.61863479 124.95124737 90.64927953 129.00874887 90.68115234 133.06640625 C90.68331253 134.26259079 90.68547272 135.45877533 90.68769836 136.69120789 C90.67494625 147.03364928 90.67494625 147.03364928 94.640625 156.359375 C97.794355 158.55236606 101.0619562 159.39944926 104.75 160.25 C105.44738281 160.42273438 106.14476562 160.59546875 106.86328125 160.7734375 C108.57246588 161.19488029 110.28586153 161.59918155 112 162 C112 165.63 112 169.26 112 173 C102.10810624 173.02312428 92.21621886 173.04091552 82.32430363 173.05181217 C77.7315736 173.05704082 73.138862 173.06413812 68.54614258 173.07543945 C64.11766312 173.086269 59.68920144 173.09227698 55.26070976 173.09487724 C53.56734372 173.09673137 51.87397871 173.10035175 50.18062019 173.10573006 C47.81708768 173.1129414 45.45362955 173.1139909 43.09008789 173.11352539 C42.38302704 173.11712067 41.67596619 173.12071594 40.94747925 173.12442017 C36.11405216 173.11405216 36.11405216 173.11405216 35 172 C34.90176063 170.33570949 34.87026369 168.66718069 34.875 167 C34.87113281 165.63875 34.87113281 165.63875 34.8671875 164.25 C35 162 35 162 36 161 C37.55644353 160.6775729 39.12059745 160.39200582 40.6875 160.125 C46.01100029 159.08311494 50.38973744 158.10999921 53.8125 153.625 C55.78898598 149.25592573 56.12652957 145.14534599 56.15821838 140.38749695 C56.1680072 139.26995529 56.17779602 138.15241364 56.18788147 137.00100708 C56.19363693 135.78468597 56.1993924 134.56836487 56.20532227 133.31518555 C56.21522186 132.0269841 56.22512146 130.73878265 56.23532104 129.4115448 C56.26229643 125.88717956 56.28334573 122.36280103 56.30332303 118.83839011 C56.32522816 115.15214872 56.35259466 111.46594796 56.37937927 107.77973938 C56.42924504 100.80298259 56.4742065 93.82620318 56.51740164 86.84940225 C56.56682636 78.90503339 56.62172504 70.9607053 56.67708123 63.0163759 C56.79080736 46.67762154 56.89766671 30.33882977 57 14 C52.99849964 14.25099501 48.9993456 14.52938022 45 14.8125 C43.31197266 14.91788086 43.31197266 14.91788086 41.58984375 15.02539062 C31.00596693 15.68665285 31.00596693 15.68665285 22.0390625 20.84765625 C21.57242188 21.57855469 21.10578125 22.30945313 20.625 23.0625 C20.06941406 23.92746094 19.51382813 24.79242187 18.94140625 25.68359375 C14.82544866 32.71467624 10.87215368 39.83212218 7 47 C0.84765625 47.09765625 0.84765625 47.09765625 -1 47 C-2.95860152 45.04139848 -2.13268635 42.06447953 -2.13891602 39.45898438 C-2.13432373 38.54439453 -2.12973145 37.62980469 -2.125 36.6875 C-2.12234131 35.75357422 -2.11968262 34.81964844 -2.11694336 33.85742188 C-2.07299681 27.23094957 -1.88241187 20.61871718 -1.5625 14 C-1.52334473 13.17072998 -1.48418945 12.34145996 -1.44384766 11.48706055 C-1.22825055 7.4910797 -0.79377022 3.96885111 0 0 Z " fill="#013A1B" transform="translate(173,694)"/>
<path d="M0 0 C11.96690138 9.85287464 18.62599169 23.78135722 21 39 C21.08793155 40.74828606 21.13024098 42.49951188 21.125 44.25 C21.12886719 45.55710937 21.12886719 45.55710937 21.1328125 46.890625 C21 49 21 49 20 50 C17.53555943 50.09500548 15.09925374 50.12557985 12.63452148 50.11352539 C11.86384338 50.11367142 11.09316528 50.11381744 10.2991333 50.1139679 C7.73975861 50.1132686 5.1804558 50.10547545 2.62109375 50.09765625 C0.85132385 50.09579213 -0.91844656 50.0943682 -2.68821716 50.09336853 C-7.35551366 50.08954288 -12.02277923 50.0797122 -16.69006348 50.06866455 C-21.44897035 50.05845144 -26.20788221 50.05387113 -30.96679688 50.04882812 C-40.31121153 50.03808997 -49.6556032 50.02101299 -59 50 C-58.55019084 52.85521179 -58.09347022 55.70903543 -57.6328125 58.5625 C-57.44489136 59.76229492 -57.44489136 59.76229492 -57.25317383 60.98632812 C-55.30462362 72.95861154 -51.54327162 82.94399149 -42 91 C-33.3920287 96.25421625 -23.88548823 96.90054137 -14 96 C-5.07710035 93.70497481 1.92776875 89.6229427 8.67578125 83.47265625 C10.25 82.0625 10.25 82.0625 13 80 C15.375 80.1875 15.375 80.1875 17 81 C17.87539847 83.95513303 18.13958938 85.58881137 17.13671875 88.54296875 C9.7266845 102.06478326 -0.12198201 109.75503956 -14.63671875 114.6328125 C-20.37583261 116.30023599 -25.8649632 116.49730286 -31.8125 116.4375 C-32.86912842 116.42992676 -33.92575684 116.42235352 -35.0144043 116.41455078 C-43.00987954 116.24599187 -49.65500881 115.34244249 -57 112 C-57.93457031 111.59910156 -58.86914062 111.19820312 -59.83203125 110.78515625 C-72.14409685 104.84436935 -80.93037326 94.57763373 -86 82 C-92.31593135 63.81431616 -92.39269506 42.37609407 -84.38500977 24.69750977 C-76.32517879 8.15897819 -64.04514325 -1.79519369 -46.83203125 -7.75 C-31.24255864 -12.09213551 -13.21364418 -9.08686041 0 0 Z " fill="#033B1D" transform="translate(510,753)"/>
<path d="M0 0 C1 1 1 1 1.10908127 3.63909531 C1.10166538 4.82632313 1.0942495 6.01355095 1.08660889 7.23675537 C1.08393548 7.89561745 1.08126208 8.55447953 1.07850766 9.23330712 C1.06838796 11.45734609 1.05119103 13.68127729 1.03417969 15.90527344 C1.02571845 17.4933446 1.01776518 19.08141854 1.01028442 20.66949463 C0.99352444 24.09789528 0.97408853 27.52626716 0.95290375 30.95464325 C0.92038237 36.37487014 0.89961422 41.79510064 0.88165283 47.21539307 C0.87856637 48.12911611 0.8754799 49.04283916 0.87229991 49.98425078 C0.86599147 51.85314681 0.85970173 53.7220429 0.85343027 55.59093904 C0.81038039 68.21535532 0.75865106 80.83963252 0.67773438 93.46386719 C0.62329413 101.97152925 0.58656902 110.47906591 0.57022786 118.98688912 C0.56084291 123.49152203 0.54223116 127.99570452 0.50191498 132.50017548 C0.46409135 136.73882334 0.44950639 140.97691184 0.45275497 145.21572113 C0.44978202 146.77139385 0.43821979 148.32707748 0.41743088 149.88261414 C0.39029398 152.0075453 0.39406127 154.13028636 0.40545654 156.25531006 C0.39954876 157.44404598 0.39364098 158.63278191 0.38755417 159.85754013 C1.18379631 163.94305896 2.81457436 165.40949957 6 168 C8.85280011 169.21222491 8.85280011 169.21222491 11.8125 169.8125 C12.78832031 170.04582031 13.76414062 170.27914062 14.76953125 170.51953125 C15.50558594 170.67808594 16.24164062 170.83664062 17 171 C17 174.3 17 177.6 17 181 C-4.12 181 -25.24 181 -47 181 C-47 177.7 -47 174.4 -47 171 C-46.16855469 170.68546875 -45.33710937 170.3709375 -44.48046875 170.046875 C-43.39378906 169.61890625 -42.30710937 169.1909375 -41.1875 168.75 C-39.56908203 168.12351562 -39.56908203 168.12351562 -37.91796875 167.484375 C-34.79437309 165.89539729 -33.76589272 164.96442953 -32 162 C-31.55405046 159.38709843 -31.55405046 159.38709843 -31.6257782 156.4967041 C-31.61876389 155.37790359 -31.61174957 154.25910309 -31.60452271 153.10639954 C-31.61216644 151.8834166 -31.61981018 150.66043365 -31.62768555 149.40039062 C-31.62220955 147.4633149 -31.62220955 147.4633149 -31.61662292 145.48710632 C-31.60722067 141.94783179 -31.61663357 138.40883413 -31.62995505 134.86958122 C-31.6412752 131.16521033 -31.63716161 127.46085295 -31.63520813 123.75646973 C-31.63432533 117.53567993 -31.64540253 111.31499913 -31.66381836 105.09423828 C-31.6849858 97.90283811 -31.68849578 90.71159761 -31.6822564 83.5201726 C-31.67656098 76.60141422 -31.6822105 69.68271206 -31.69342995 62.76396179 C-31.69807358 59.81986959 -31.69895081 56.87581179 -31.6968441 53.93171692 C-31.69461011 49.82092935 -31.70907259 45.71036531 -31.7253418 41.59960938 C-31.72286438 40.37662643 -31.72038696 39.15364349 -31.71783447 37.89360046 C-31.72491928 36.77479996 -31.73200409 35.65599945 -31.73930359 34.5032959 C-31.74135646 33.53139061 -31.74340933 32.55948532 -31.74552441 31.55812836 C-32.01413213 28.85793603 -32.50560219 27.25444231 -34 25 C-36.81364273 23.46620224 -36.81364273 23.46620224 -40.0625 22.3125 C-45.94787645 20.05212355 -45.94787645 20.05212355 -47 19 C-47.04080783 17.00041636 -47.04254356 14.99954746 -47 13 C-39.43220547 9.75969229 -31.69063115 7.21784604 -23.81274414 4.85302734 C-21.80222035 4.24690092 -19.79674875 3.62567619 -17.79101562 3.00390625 C-16.49246781 2.61105144 -15.19364856 2.21909244 -13.89453125 1.828125 C-12.73800049 1.4765332 -11.58146973 1.12494141 -10.38989258 0.76269531 C-6.80507784 -0.04385573 -3.66271015 -0.20673596 0 0 Z " fill="#023A1C" transform="translate(660,685)"/>
<path d="M0 0 C0.74636719 0.1959375 1.49273438 0.391875 2.26171875 0.59375 C4 2 4 2 4.74609375 5.40625 C5.16124132 10.76080647 5.10828052 16.13311449 5.0625 21.5 C5.05798828 22.51320313 5.05347656 23.52640625 5.04882812 24.5703125 C5.03714593 27.04693827 5.02076582 29.52343657 5 32 C3.35 32.33 1.7 32.66 0 33 C-0.556875 32.2265625 -1.11375 31.453125 -1.6875 30.65625 C-11.45453953 16.81271141 -11.45453953 16.81271141 -26 9 C-33.15263762 8.01906684 -39.06799141 8.74291148 -45 13 C-48.34304399 16.00873959 -48.9287819 17.43915749 -49.5 21.9375 C-49.5694615 26.16596869 -47.59952604 28.77692476 -45 32 C-42.61585959 33.52007013 -40.47918476 34.7114274 -37.9375 35.875 C-37.24503174 36.20741699 -36.55256348 36.53983398 -35.83911133 36.88232422 C-29.56628994 39.84841788 -23.15265202 42.48068059 -16.74487305 45.13793945 C-5.03814225 50.02507514 5.21241052 54.60329596 10.9375 66.5 C14.7571189 76.61819576 14.16615341 87.25177846 10.32421875 97.28125 C5.05355467 108.10243643 -3.11102004 114.35382955 -14.2890625 118.23828125 C-27.45073835 121.93644665 -42.54562797 120.90059627 -55.8125 118.25 C-57.00093506 118.01470581 -57.00093506 118.01470581 -58.21337891 117.7746582 C-63.81930798 116.53727073 -68.83952498 114.49564583 -74 112 C-74.95533673 104.29746159 -75.15216652 96.69354273 -75.125 88.9375 C-75.12886719 87.79861328 -75.13273438 86.65972656 -75.13671875 85.48632812 C-75.13542969 84.40673828 -75.13414062 83.32714844 -75.1328125 82.21484375 C-75.13168457 81.23636475 -75.13055664 80.25788574 -75.12939453 79.24975586 C-75 77 -75 77 -74 76 C-72.00041636 75.95919217 -69.99954746 75.95745644 -68 76 C-67.50371094 76.90621094 -67.00742187 77.81242188 -66.49609375 78.74609375 C-57.4693122 95.71175371 -57.4693122 95.71175371 -42 106 C-39.17993076 106.24131936 -36.50529949 106.38116182 -33.6875 106.375 C-32.93001465 106.37338867 -32.1725293 106.37177734 -31.39208984 106.37011719 C-25.61641895 106.24301504 -21.77936699 105.44114423 -17 102 C-13.39205831 98.08787587 -13.48348347 94.88825675 -13.66796875 89.75 C-14.17061045 85.58694406 -15.16474922 83.07988725 -18 80 C-26.19920878 74.03758667 -35.71469611 70.74095853 -45.09960938 67.14453125 C-56.48945603 62.66559437 -67.58013161 57.0223051 -72.875 45.3125 C-76.18381778 35.56986988 -76.35231347 25.13974311 -72.390625 15.5703125 C-67.07265906 5.74103837 -58.676445 -0.26144494 -48.1484375 -3.44140625 C-33.09290874 -7.35584373 -14.63173585 -4.72753986 0 0 Z " fill="#033A1C" transform="translate(839,749)"/>
<path d="M0 0 C1.41777976 2.83555952 1.10641438 5.19202155 1.08660889 8.36373901 C1.08393548 9.02416108 1.08126208 9.68458315 1.07850766 10.36501801 C1.06840968 12.58828539 1.05120914 14.81144368 1.03417969 17.03466797 C1.02571624 18.62450914 1.01776327 20.21435311 1.01028442 21.80419922 C0.99353955 25.23313026 0.97410622 28.66203227 0.95290375 32.09093857 C0.92035975 37.51097085 0.89960733 42.93100677 0.88165283 48.35110474 C0.87856637 49.26504686 0.8754799 50.17898899 0.87229991 51.12062633 C0.86599172 52.9897295 0.85970197 54.85883274 0.85343027 56.72793603 C0.81038371 69.35014358 0.75858677 81.97221203 0.67773438 94.59423828 C0.62331891 103.1033629 0.5865775 111.61236238 0.57022786 120.12164795 C0.56083859 124.62679279 0.5422062 129.13148767 0.50191498 133.63647079 C0.46413167 137.87348728 0.44950321 142.10994454 0.45275497 146.34712219 C0.44977869 147.90321579 0.43819597 149.45931998 0.41743088 151.01527786 C0.39035297 153.13831906 0.39404464 155.25916136 0.40545654 157.3822937 C0.39954876 158.5706526 0.39364098 159.7590115 0.38755417 160.98338127 C0.74695464 164.18748753 0.74695464 164.18748753 3.38579178 166.3640461 C5.95949632 167.97465307 7.78223909 168.68457407 10.75 169.1875 C14.92756539 169.92756539 14.92756539 169.92756539 16 171 C16.07205511 172.68608966 16.08386068 174.37500659 16.0625 176.0625 C16.05347656 176.98160156 16.04445313 177.90070313 16.03515625 178.84765625 C16.02355469 179.55792969 16.01195312 180.26820313 16 181 C8.06386213 181.02312764 0.12773824 181.04091723 -7.80842495 181.05181217 C-11.49314498 181.05704008 -15.17784203 181.06413605 -18.86254883 181.07543945 C-22.41570831 181.08627162 -25.96884563 181.09227753 -29.52202034 181.09487724 C-30.88045666 181.0967309 -32.23889171 181.10035038 -33.59731865 181.10573006 C-35.49382223 181.11294475 -37.39034793 181.11340809 -39.28686523 181.11352539 C-40.90902199 181.11685631 -40.90902199 181.11685631 -42.56394958 181.12025452 C-45 181 -45 181 -46 180 C-46.07179964 178.48071962 -46.08392007 176.95832518 -46.0625 175.4375 C-46.05347656 174.61121094 -46.04445313 173.78492188 -46.03515625 172.93359375 C-46.02355469 172.29550781 -46.01195312 171.65742187 -46 171 C-45.16855469 170.67386719 -44.33710937 170.34773437 -43.48046875 170.01171875 C-42.39378906 169.57472656 -41.30710937 169.13773438 -40.1875 168.6875 C-38.56908203 168.04361328 -38.56908203 168.04361328 -36.91796875 167.38671875 C-33.44673963 165.76871837 -33.44673963 165.76871837 -31 163 C-30.20703039 159.11861883 -29.86975322 155.40844668 -29.84609985 151.45274353 C-29.83749939 150.37470963 -29.82889893 149.29667572 -29.82003784 148.18597412 C-29.81577789 147.01850647 -29.81151794 145.85103882 -29.80712891 144.64819336 C-29.79895142 143.40689163 -29.79077393 142.1655899 -29.78234863 140.88667297 C-29.75757637 136.78773311 -29.74084588 132.6888298 -29.7265625 128.58984375 C-29.72119872 127.17527321 -29.7158212 125.76070272 -29.71043015 124.34613228 C-29.68883194 118.46372707 -29.67009334 112.58132447 -29.65880775 106.69888973 C-29.6425474 98.28122491 -29.60928485 89.8640199 -29.55240691 81.44652838 C-29.51371869 75.51856509 -29.49417704 69.59072494 -29.48888719 63.66263872 C-29.48523506 60.12499507 -29.47322771 56.58784352 -29.44078445 53.05033684 C-29.40513576 49.10755718 -29.40907185 45.16535758 -29.41650391 41.22241211 C-29.40009857 40.05292023 -29.38369324 38.88342834 -29.36679077 37.67849731 C-29.35406857 31.29097463 -29.35406857 31.29097463 -32.37142944 25.81910706 C-34.9691047 24.02138115 -37.27616546 22.80063616 -40.25 21.75 C-44.94444444 20.05555556 -44.94444444 20.05555556 -46 19 C-46.04080783 17.00041636 -46.04254356 14.99954746 -46 13 C-45.32122803 12.78384033 -44.64245605 12.56768066 -43.94311523 12.3449707 C-40.77424947 11.33517133 -37.60589062 10.32378918 -34.4375 9.3125 C-33.29756592 8.94962891 -32.15763184 8.58675781 -30.9831543 8.21289062 C-26.04393354 6.63592527 -21.10860874 5.05774739 -16.2109375 3.35546875 C-15.53748291 3.12239014 -14.86402832 2.88931152 -14.17016602 2.64916992 C-12.44017204 2.04461558 -10.71405678 1.42899326 -8.98828125 0.8125 C-5.86130759 -0.03770983 -3.22477092 -0.15471165 0 0 Z " fill="#033B1D" transform="translate(584,685)"/>
<path d="M0 0 C1.85965075 1.85965075 1.24087549 4.94889119 1.31640625 7.44140625 C1.35830078 8.74658203 1.40019531 10.05175781 1.44335938 11.39648438 C1.48317608 12.7851533 1.52288825 14.17382522 1.5625 15.5625 C1.60567989 16.95509183 1.649294 18.34767028 1.69335938 19.74023438 C1.79985876 23.16004801 1.90186923 26.57993763 2 30 C2.47308594 29.03320312 2.94617188 28.06640625 3.43359375 27.0703125 C8.98455186 16.0195965 15.5518922 4.18441462 28 0 C35.08527502 -1.26036142 41.89588521 0.21868995 48 4 C51.66010164 7.27352911 52.79581674 10.54008972 53.46875 15.3515625 C53.74987002 21.91571489 53.49619085 27.18670774 49.4140625 32.51171875 C46.1498984 35.94720638 43.87468169 36.85660956 39.1875 37.625 C35.33401728 37.52434933 33.84937251 36.19460045 31.1875 33.5 C27.94783631 30.34979448 25.91237291 29.44143753 21.375 29.3125 C16.50457841 29.40533795 13.86139305 31.10080825 10 34 C0.8520108 44.82510281 2.08966114 58.54328524 2.36206055 71.90771484 C2.43803147 75.65118834 2.46458322 79.39255633 2.48242188 83.13671875 C2.50499115 85.52086171 2.53028256 87.90498081 2.55859375 90.2890625 C2.57604897 91.96399277 2.57604897 91.96399277 2.59385681 93.67276001 C2.61629959 94.70839081 2.63874237 95.74402161 2.66186523 96.81103516 C2.68687355 98.17332748 2.68687355 98.17332748 2.71238708 99.56314087 C3.01813018 102.15361166 3.63281495 103.79173208 5 106 C9.56984123 109.30919538 14.44225471 110.43288313 20 111 C21 112 21 112 21.09765625 114.06640625 C21.08605469 114.89011719 21.07445312 115.71382812 21.0625 116.5625 C21.05347656 117.38878906 21.04445313 118.21507812 21.03515625 119.06640625 C21.02355469 119.70449219 21.01195312 120.34257813 21 121 C-1.33686569 121.61187975 -23.65295627 122.18502612 -46 122 C-46 118.37 -46 114.74 -46 111 C-44.618125 110.566875 -43.23625 110.13375 -41.8125 109.6875 C-35.36152395 107.72149077 -35.36152395 107.72149077 -31 103 C-30.88713048 100.65252456 -30.84057976 98.30178172 -30.82299805 95.95166016 C-30.81314125 94.86358315 -30.81314125 94.86358315 -30.80308533 93.75352478 C-30.78334519 91.34870302 -30.77168899 88.94394368 -30.76171875 86.5390625 C-30.75764322 85.71844707 -30.7535677 84.89783165 -30.74936867 84.05234909 C-30.72850614 79.71003215 -30.71420451 75.36774685 -30.70483398 71.02539062 C-30.69376137 66.53712328 -30.65935259 62.04935061 -30.61966228 57.56125832 C-30.5935381 54.11259021 -30.58514598 50.6640408 -30.58155251 47.21528244 C-30.57667663 45.5606489 -30.5650342 43.906021 -30.54651451 42.25148392 C-30.52220829 39.93629796 -30.52307162 37.62240295 -30.5300293 35.30712891 C-30.52416306 33.98967682 -30.51829681 32.67222473 -30.51225281 31.31484985 C-31.08096857 27.44971769 -31.92746873 26.3234921 -35 24 C-37.78414977 22.68228371 -37.78414977 22.68228371 -40.75 21.75 C-42.22726562 21.24726562 -42.22726562 21.24726562 -43.734375 20.734375 C-44.48203125 20.49203125 -45.2296875 20.2496875 -46 20 C-46 17.36 -46 14.72 -46 12 C-38.84233137 9.11263759 -31.47369209 7.01850021 -24.05419922 4.9284668 C-21.87096207 4.31135865 -19.69140515 3.68225288 -17.51171875 3.05273438 C-16.10958408 2.65551125 -14.70724693 2.25900197 -13.3046875 1.86328125 C-12.04640137 1.50532471 -10.78811523 1.14736816 -9.49169922 0.77856445 C-6.176912 0.0394471 -3.38036333 -0.23213475 0 0 Z " fill="#043C1E" transform="translate(362,745)"/>
<path d="M0 0 C2 2 2 2 2.24774647 3.84630489 C2.24678313 4.60012227 2.2458198 5.35393965 2.24482727 6.13059998 C2.24876495 6.99567169 2.25270264 7.86074341 2.25675964 8.75202942 C2.25106461 9.7032518 2.24536957 10.65447418 2.23950195 11.63452148 C2.24151611 12.63461243 2.24353027 13.63470337 2.24560547 14.6651001 C2.24915741 16.84171204 2.24837599 19.01833429 2.24382973 21.19494438 C2.23825653 24.6363561 2.24736203 28.07742826 2.2610321 31.51881409 C2.2982484 41.30495687 2.31667916 51.0909858 2.30541992 60.87719727 C2.29958106 66.85782221 2.31777137 72.83797077 2.35130882 78.81849861 C2.35928466 81.10190564 2.3579565 83.38536428 2.34728432 85.6687603 C2.33301825 88.85839818 2.3491655 92.04653009 2.37231445 95.23608398 C2.36054672 96.18528214 2.34877899 97.13448029 2.33665466 98.11244202 C2.37095042 100.51339551 2.43743993 102.66586693 3 105 C6.08453227 107.66700695 9.41330624 108.59572575 13.3125 109.6875 C14.859375 110.120625 16.40625 110.55375 18 111 C18 114.3 18 117.6 18 121 C-3.12 121 -24.24 121 -46 121 C-46 117.37 -46 113.74 -46 110 C-43.55859375 109.38151042 -41.1171875 108.76302083 -38.67578125 108.14453125 C-35.17245442 106.64602795 -33.42276243 104.94600992 -31 102 C-30.2531825 98.54861924 -30.2531825 98.54861924 -30.36889648 94.70288086 C-30.36174118 93.98681168 -30.35458588 93.27074249 -30.34721375 92.53297424 C-30.33036416 90.17627318 -30.34970253 87.82148444 -30.37109375 85.46484375 C-30.37026478 83.82247256 -30.36780435 82.18010146 -30.36378479 80.53773499 C-30.3609295 77.10034125 -30.37560247 73.66360009 -30.40307617 70.22631836 C-30.43718609 65.82206618 -30.43112967 61.41897858 -30.4124136 57.01467037 C-30.40184242 53.6251099 -30.41078189 50.23582016 -30.42579842 46.84628487 C-30.43097807 45.22239549 -30.43050104 43.59847782 -30.42425346 41.97459221 C-30.41879846 39.7050182 -30.43918107 37.43710885 -30.46655273 35.16772461 C-30.4758506 33.23176674 -30.4758506 33.23176674 -30.4853363 31.25669861 C-31.08876241 27.43832753 -31.98159282 26.32542863 -35 24 C-38.86748444 21.81403054 -42.76165329 20.31186922 -47 19 C-47.3125 16.1875 -47.3125 16.1875 -47 13 C-42.98768037 9.89300665 -38.41368328 8.79541268 -33.59375 7.51953125 C-32.79142944 7.30181564 -31.98910889 7.08410004 -31.16247559 6.85978699 C-29.47243911 6.40320057 -27.78137153 5.95041567 -26.08935547 5.5012207 C-23.50583437 4.81405183 -20.92667946 4.11204209 -18.34765625 3.40820312 C-16.70076045 2.96525399 -15.05363237 2.52316736 -13.40625 2.08203125 C-12.63841187 1.87270462 -11.87057373 1.66337799 -11.07946777 1.44770813 C-3.81433404 -0.46348594 -3.81433404 -0.46348594 0 0 Z " fill="#063D1F" transform="translate(733,745)"/>
<path d="M0 0 C4.60478296 3.31972725 8.72107169 7.16064765 9.6875 12.9375 C10.23587343 19.23324881 9.96516781 24.36546472 6.6875 29.9375 C2.60399144 34.21093919 -1.44069075 36.36691783 -7.3125 36.9375 C-13.11758414 36.9285138 -18.50588586 36.40273345 -23.3125 32.9375 C-27.82470845 27.06427216 -30.26823706 21.47570777 -29.3125 13.9375 C-27.41365061 8.03479105 -24.35218715 4.43442578 -19.3125 0.9375 C-13.11179901 -1.99804781 -6.50152487 -2.08539477 0 0 Z " fill="#033A1C" transform="translate(727.3125,692.0625)"/>
<path d="M0 0 C7.32411719 4.16469409 10.41051646 9.95076208 12.7890625 17.796875 C13.23873652 20.07169653 13.32016215 22.18220059 13.3125 24.5 C13.31636719 25.68142578 13.31636719 25.68142578 13.3203125 26.88671875 C13.1875 28.8125 13.1875 28.8125 12.1875 29.8125 C10.77524954 29.9053726 9.35841066 29.92996772 7.94311523 29.92602539 C7.04225693 29.92594986 6.14139862 29.92587433 5.21324158 29.92579651 C4.23408279 29.92063522 3.25492401 29.91547394 2.24609375 29.91015625 C1.24868668 29.9087413 0.2512796 29.90732635 -0.77635193 29.90586853 C-3.97593124 29.90025114 -7.17544169 29.88769571 -10.375 29.875 C-12.53841045 29.86998724 -14.70182199 29.86542395 -16.86523438 29.86132812 C-22.18101325 29.85027607 -27.49675171 29.83352104 -32.8125 29.8125 C-32.83743214 28.38192536 -32.85515651 26.95122401 -32.86987305 25.52050781 C-32.88052292 24.72380676 -32.89117279 23.92710571 -32.90214539 23.10626221 C-32.65535007 16.79149478 -29.28186362 10.62094753 -25.375 5.8125 C-17.11887148 -0.63130763 -10.26595671 -3.19759307 0 0 Z " fill="#F4EEDE" transform="translate(484.8125,759.1875)"/>
<path d="M0 0 C0.66 0 1.32 0 2 0 C2 42.24 2 84.48 2 128 C1.67 128 1.34 128 1 128 C0.67 120.74 0.34 113.48 0 106 C-0.33 106 -0.66 106 -1 106 C-1.023233 93.80352019 -1.04097077 81.6070457 -1.05181217 69.41054821 C-1.0570171 63.74642845 -1.06407108 58.0823239 -1.07543945 52.41821289 C-1.08635359 46.94578719 -1.09229483 41.47337607 -1.09487724 36.00094032 C-1.09671618 33.91950565 -1.10030702 31.83807172 -1.10573006 29.7566433 C-1.1581055 8.80959552 -1.1581055 8.80959552 0 0 Z " fill="#CDD6C9" transform="translate(553,714)"/>
<path d="M0 0 C0.0231312 13.13421951 0.04091907 26.26843421 0.05181217 39.40266991 C0.05703929 45.50087578 0.06413386 51.59906775 0.07543945 57.69726562 C0.08627438 63.57813275 0.09227813 69.45898649 0.09487724 75.33986282 C0.09673039 77.58782792 0.10034892 79.83579226 0.10573006 82.08375168 C0.11294849 85.22300575 0.1139906 88.36220386 0.11352539 91.50146484 C0.11712067 92.43869888 0.12071594 93.37593292 0.12442017 94.34156799 C0.1230455 95.19414688 0.12167084 96.04672577 0.12025452 96.92514038 C0.12117631 97.66810553 0.1220981 98.41107067 0.12304783 99.17654991 C0 101 0 101 -1 103 C-11.56 103 -22.12 103 -33 103 C-33 102.67 -33 102.34 -33 102 C-23.07171011 100.75896376 -13.00555401 101 -3 101 C-3 68 -3 35 -3 1 C-1 0 -1 0 0 0 Z " fill="#CFD5C3" transform="translate(649,300)"/>
<path d="M0 0 C1.36916565 0.00539291 1.36916565 0.00539291 2.76599121 0.01089478 C3.72198715 0.01074875 4.67798309 0.01060272 5.66294861 0.01045227 C8.83916452 0.01115181 12.01532259 0.01894614 15.19152832 0.02676392 C17.387283 0.02862795 19.58303809 0.03005192 21.77879333 0.03105164 C27.5705784 0.03487798 33.36233857 0.04470926 39.15411377 0.05575562 C45.05915998 0.06596724 50.9642102 0.07054872 56.8692627 0.07559204 C68.46497679 0.08633142 80.06067236 0.10340923 91.65637207 0.12442017 C91.65637207 0.45442017 91.65637207 0.78442017 91.65637207 1.12442017 C87.20137207 1.61942017 87.20137207 1.61942017 82.65637207 2.12442017 C82.65637207 2.45442017 82.65637207 2.78442017 82.65637207 3.12442017 C46.02637207 3.12442017 9.39637207 3.12442017 -28.34362793 3.12442017 C-28.34362793 2.79442017 -28.34362793 2.46442017 -28.34362793 2.12442017 C-27.7127124 2.09936401 -27.08179688 2.07430786 -26.4317627 2.04849243 C-23.58965968 1.9328788 -20.7479171 1.80999701 -17.90612793 1.68692017 C-16.91290527 1.64760376 -15.91968262 1.60828735 -14.8963623 1.56777954 C-13.95212402 1.52588501 -13.00788574 1.48399048 -12.03503418 1.44082642 C-11.16048584 1.4041687 -10.2859375 1.36751099 -9.3848877 1.32974243 C-6.19910827 1.00929745 -3.59283433 0.00597962 0 0 Z " fill="#E7E6D5" transform="translate(556.3436279296875,548.8755798339844)"/>
<path d="M0 0 C10.28304538 -0.02312376 20.56608462 -0.04091525 30.84915066 -0.05181217 C35.6234828 -0.05704093 40.39779721 -0.06413844 45.17211914 -0.07543945 C49.77566262 -0.0862686 54.37918899 -0.09227689 58.98274422 -0.09487724 C60.74309623 -0.09673144 62.50344726 -0.10035196 64.26379204 -0.10573006 C66.72072277 -0.11294086 69.17758195 -0.11399093 71.63452148 -0.11352539 C72.73719109 -0.1189183 72.73719109 -0.1189183 73.86213684 -0.12442017 C78.88594784 -0.11405216 78.88594784 -0.11405216 80 1 C80.07244053 3.01964199 80.08377188 5.04167124 80.0625 7.0625 C80.05347656 8.16722656 80.04445313 9.27195312 80.03515625 10.41015625 C80.02355469 11.26480469 80.01195312 12.11945313 80 13 C79.67 13 79.34 13 79 13 C78.67 9.7 78.34 6.4 78 3 C68.43 3 58.86 3 49 3 C49 2.67 49 2.34 49 2 C24.745 1.505 24.745 1.505 0 1 C0 0.67 0 0.34 0 0 Z " fill="#E5E8D9" transform="translate(436,420)"/>
<path d="M0 0 C0.33 0 0.66 0 1 0 C1.01030746 1.11277817 1.02061493 2.22555634 1.03123474 3.37205505 C1.12879246 13.83497918 1.23150933 24.29784148 1.33933926 34.76066494 C1.39461439 40.14030804 1.44804158 45.51995652 1.49731445 50.8996582 C1.54489048 56.08679671 1.59723056 61.27386685 1.65294075 66.46092415 C1.67339505 68.44454316 1.69210292 70.42818094 1.70907402 72.41183281 C1.73305023 75.18014216 1.76311364 77.94832102 1.79467773 80.71655273 C1.8004332 81.54517319 1.80618866 82.37379364 1.81211853 83.2275238 C1.51198656 86.91663904 1.51198656 86.91663904 3 90 C3.08758003 91.99964982 3.10696576 94.0023611 3.09765625 96.00390625 C3.09443359 97.21884766 3.09121094 98.43378906 3.08789062 99.68554688 C3.07951172 100.96494141 3.07113281 102.24433594 3.0625 103.5625 C3.05798828 104.84576172 3.05347656 106.12902344 3.04882812 107.45117188 C3.03699545 110.63416022 3.02051068 113.81705762 3 117 C2.67 117 2.34 117 2 117 C1.67 109.74 1.34 102.48 1 95 C0.67 95 0.34 95 0 95 C0 63.65 0 32.3 0 0 Z " fill="#ECE7D3" transform="translate(552,725)"/>
<path d="M0 0 C0.33 0 0.66 0 1 0 C1.33 8.25 1.66 16.5 2 25 C2.33 25 2.66 25 3 25 C3.04241723 27.33294775 3.04092937 29.66702567 3 32 C2 33 2 33 -0.40844727 33.11352539 C-1.45057373 33.10828857 -2.4927002 33.10305176 -3.56640625 33.09765625 C-4.69111328 33.09443359 -5.81582031 33.09121094 -6.97460938 33.08789062 C-8.15861328 33.07951172 -9.34261719 33.07113281 -10.5625 33.0625 C-11.75037109 33.05798828 -12.93824219 33.05347656 -14.16210938 33.04882812 C-17.10812226 33.03699675 -20.05403681 33.02051287 -23 33 C-22.67 32.34 -22.34 31.68 -22 31 C-17.50692829 29.61281864 -12.84015708 29.88719379 -8.1875 29.9375 C-4.1346875 29.9684375 -4.1346875 29.9684375 0 30 C0 20.1 0 10.2 0 0 Z " fill="#E8E8D9" transform="translate(357,234)"/>
<path d="M0 0 C0.99 0.33 1.98 0.66 3 1 C3 2.98 3 4.96 3 7 C2.67 7 2.34 7 2 7 C1.67 35.71 1.34 64.42 1 94 C0.67 94 0.34 94 0 94 C0 62.98 0 31.96 0 0 Z " fill="#EDE8D5" transform="translate(227,724)"/>
<path d="M0 0 C0.33 0.66 0.66 1.32 1 2 C0.0625 4.125 0.0625 4.125 -1 6 C-0.01 5.67 0.98 5.34 2 5 C4.35680213 4.91602843 6.71594081 4.89271813 9.07421875 4.90234375 C10.09996758 4.90446617 10.09996758 4.90446617 11.1464386 4.90663147 C13.32683722 4.91222124 15.50713251 4.92477178 17.6875 4.9375 C19.16731622 4.94251633 20.64713406 4.947079 22.12695312 4.95117188 C25.75133557 4.96218729 29.3756577 4.97944488 33 5 C33.495 6.485 33.495 6.485 34 8 C21.46 8 8.92 8 -4 8 C-2 3 -2 3 0 0 Z " fill="#E6E7D8" transform="translate(614,259)"/>
<path d="M0 0 C0.33 0 0.66 0 1 0 C2.44827586 25.70689655 2.44827586 25.70689655 2 34 C1 35 1 35 -0.85766602 35.11352539 C-2.04380493 35.10567017 -2.04380493 35.10567017 -3.25390625 35.09765625 C-4.10791016 35.09443359 -4.96191406 35.09121094 -5.84179688 35.08789062 C-6.73962891 35.07951172 -7.63746094 35.07113281 -8.5625 35.0625 C-9.46419922 35.05798828 -10.36589844 35.05347656 -11.29492188 35.04882812 C-13.53001314 35.03700225 -15.76497437 35.0205222 -18 35 C-18 34.67 -18 34.34 -18 34 C-9.585 33.505 -9.585 33.505 -1 33 C-0.67 22.11 -0.34 11.22 0 0 Z " fill="#CFD8CC" transform="translate(358,368)"/>
<path d="M0 0 C0.66 0.33 1.32 0.66 2 1 C2.02689216 2.47906892 2.04634621 3.95827483 2.0625 5.4375 C2.07410156 6.26121094 2.08570313 7.08492187 2.09765625 7.93359375 C2 10 2 10 1 11 C-0.41225046 11.0928726 -1.82908934 11.11746772 -3.24438477 11.11352539 C-4.14524307 11.11344986 -5.04610138 11.11337433 -5.97425842 11.11329651 C-6.95341721 11.10813522 -7.93257599 11.10297394 -8.94140625 11.09765625 C-9.93881332 11.0962413 -10.9362204 11.09482635 -11.96385193 11.09336853 C-15.16343124 11.08775114 -18.36294169 11.07519571 -21.5625 11.0625 C-23.72591045 11.05748724 -25.88932199 11.05292395 -28.05273438 11.04882812 C-33.36851325 11.03777607 -38.68425171 11.02102104 -44 11 C-44 10.67 -44 10.34 -44 10 C-29.48 9.67 -14.96 9.34 0 9 C0 6.03 0 3.06 0 0 Z " fill="#E1E8D7" transform="translate(496,778)"/>
<path d="M0 0 C0.33 0.66 0.66 1.32 1 2 C1.66 2 2.32 2 3 2 C3.33 2.99 3.66 3.98 4 5 C3.03125 6.69921875 3.03125 6.69921875 1.5 8.6875 C-3.13237584 15.23372125 -5.94350865 22.63005785 -9 30 C-9.66 30 -10.32 30 -11 30 C-8.90693065 23.25566542 -6.27631264 16.87966348 -3.40234375 10.4296875 C-1.98666366 6.96738354 -0.95968021 3.60913226 0 0 Z " fill="#DFE9DE" transform="translate(525,466)"/>
<path d="M0 0 C0.33 0 0.66 0 1 0 C1.02505615 0.7520874 1.0501123 1.5041748 1.07592773 2.27905273 C1.19150514 5.66539196 1.31440345 9.05142613 1.4375 12.4375 C1.47681641 13.62150391 1.51613281 14.80550781 1.55664062 16.02539062 C1.59853516 17.15009766 1.64042969 18.27480469 1.68359375 19.43359375 C1.72025146 20.47572021 1.75690918 21.51784668 1.79467773 22.59155273 C1.73515341 24.9499826 1.73515341 24.9499826 3 26 C3.08758003 27.99964982 3.10696576 30.0023611 3.09765625 32.00390625 C3.09443359 33.21884766 3.09121094 34.43378906 3.08789062 35.68554688 C3.07951172 36.96494141 3.07113281 38.24433594 3.0625 39.5625 C3.05798828 40.84576172 3.05347656 42.12902344 3.04882812 43.45117188 C3.03699545 46.63416022 3.02051068 49.81705762 3 53 C2.67 53 2.34 53 2 53 C1.67 45.74 1.34 38.48 1 31 C0.67 31 0.34 31 0 31 C0 20.77 0 10.54 0 0 Z " fill="#CED3BF" transform="translate(552,789)"/>
<path d="M0 0 C0.33 0 0.66 0 1 0 C1.06316406 1.04800781 1.12632812 2.09601562 1.19140625 3.17578125 C1.45558369 10.43827984 1.45558369 10.43827984 4.515625 16.62890625 C6.56848502 17.5598503 6.56848502 17.5598503 10 18 C10.969375 18.226875 11.93875 18.45375 12.9375 18.6875 C13.618125 18.790625 14.29875 18.89375 15 19 C15 19.66 15 20.32 15 21 C9.3186587 20.43186587 4.39756593 19.53893185 0.34375 15.24609375 C-1.33908264 12.43321943 -1.33773518 10.62997522 -1.25 7.375 C-1.23453125 6.41335938 -1.2190625 5.45171875 -1.203125 4.4609375 C-1 2 -1 2 0 0 Z " fill="#E3E8DD" transform="translate(661,835)"/>
<path d="M0 0 C-6.4034179 4.26894527 -15.52408906 3.14315574 -23 3 C-22.938125 4.918125 -22.938125 4.918125 -22.875 6.875 C-22.8046875 9.0546875 -22.8046875 9.0546875 -23 11 C-23.66 11.66 -24.32 12.32 -25 13 C-25 9.04 -25 5.08 -25 1 C-22.14596025 0.83087172 -19.29179998 0.66462837 -16.4375 0.5 C-15.23770508 0.42845703 -15.23770508 0.42845703 -14.01367188 0.35546875 C-9.33281023 0.08799094 -4.68841621 -0.05034541 0 0 Z " fill="#FAFAF2" transform="translate(693,420)"/>
<path d="M0 0 C0.33 0.66 0.66 1.32 1 2 C-2.3 2.66 -5.6 3.32 -9 4 C-9.66 6.64 -10.32 9.28 -11 12 C-11.66 11.67 -12.32 11.34 -13 11 C-13.36658354 4.52369077 -13.36658354 4.52369077 -11.6875 2.125 C-7.92190429 -0.38539714 -4.37595487 -0.08256519 0 0 Z " fill="#132F18" transform="translate(373,217)"/>
<path d="M0 0 C-0.78375 0.0825 -1.5675 0.165 -2.375 0.25 C-5.1446618 0.70849401 -5.1446618 0.70849401 -6.125 3 C-6.41375 3.66 -6.7025 4.32 -7 5 C-7.99 5.33 -8.98 5.66 -10 6 C-10 8.64 -10 11.28 -10 14 C-10.99 14.495 -10.99 14.495 -12 15 C-12.71920089 8.16759156 -12.71920089 8.16759156 -10.734375 4.9453125 C-5.17916116 -1.55374835 -5.17916116 -1.55374835 0 0 Z " fill="#F4F5ED" transform="translate(801,760)"/>
<path d="M0 0 C0.33 0 0.66 0 1 0 C1.33 6.27 1.66 12.54 2 19 C2.33 18.34 2.66 17.68 3 17 C3.66 17.33 4.32 17.66 5 18 C4.01 19.98 3.02 21.96 2 24 C0 22 0 22 -0.22705078 19.75341797 C-0.21657715 18.84221191 -0.20610352 17.93100586 -0.1953125 16.9921875 C-0.18886719 16.00605469 -0.18242187 15.01992188 -0.17578125 14.00390625 C-0.15902344 12.97136719 -0.14226562 11.93882812 -0.125 10.875 C-0.11597656 9.83472656 -0.10695313 8.79445313 -0.09765625 7.72265625 C-0.07403747 5.14820908 -0.04110149 2.57421788 0 0 Z " fill="#E4E4D5" transform="translate(365,747)"/>
<path d="M0 0 C0.66 0.33 1.32 0.66 2 1 C1.62488281 1.43570313 1.24976563 1.87140625 0.86328125 2.3203125 C-2.45859777 6.18607599 -5.74642927 10.07657648 -9 14 C-9.33 13.01 -9.66 12.02 -10 11 C-8.52116808 9.35386588 -7.04192523 7.70810092 -5.5625 6.0625 C-4.73878906 5.14597656 -3.91507812 4.22945312 -3.06640625 3.28515625 C-1 1 -1 1 0 0 Z " fill="#06250E" transform="translate(441,757)"/>
<path d="M0 0 C1 2 1 2 0.4765625 3.8046875 C0.05503906 4.82949219 0.05503906 4.82949219 -0.375 5.875 C-1.4695323 8.56529902 -2.35197606 11.16648355 -3 14 C-3.66 14 -4.32 14 -5 14 C-5.33 14.99 -5.66 15.98 -6 17 C-5.57664615 10.50857435 -3.08900201 5.66507011 0 0 Z " fill="#092913" transform="translate(494,501)"/>
<path d="M0 0 C0.33 0.66 0.66 1.32 1 2 C0.22914063 2.40992188 -0.54171875 2.81984375 -1.3359375 3.2421875 C-2.33882812 3.78101563 -3.34171875 4.31984375 -4.375 4.875 C-5.87160156 5.67550781 -5.87160156 5.67550781 -7.3984375 6.4921875 C-10.05348395 7.8820138 -10.05348395 7.8820138 -12 10 C-12.33 8.68 -12.66 7.36 -13 6 C-8.71 4.02 -4.42 2.04 0 0 Z " fill="#F1F4EA" transform="translate(520,510)"/>
<path d="M0 0 C1.2065625 0.0309375 1.2065625 0.0309375 2.4375 0.0625 C0.4575 1.0525 0.4575 1.0525 -1.5625 2.0625 C-1.5625 4.7025 -1.5625 7.3425 -1.5625 10.0625 C-2.2225 10.0625 -2.8825 10.0625 -3.5625 10.0625 C-3.58939216 8.58343108 -3.60884621 7.10422517 -3.625 5.625 C-3.63660156 4.80128906 -3.64820313 3.97757813 -3.66015625 3.12890625 C-3.51340586 0.02366796 -3.12550237 0.07623177 0 0 Z " fill="#06250E" transform="translate(541.5625,854.9375)"/>
<path d="M0 0 C0.66 0 1.32 0 2 0 C2.33 0.99 2.66 1.98 3 3 C4.8653245 4.01754868 4.8653245 4.01754868 7.0625 4.6875 C7.79597656 4.93886719 8.52945313 5.19023438 9.28515625 5.44921875 C9.85105469 5.63097656 10.41695312 5.81273437 11 6 C11 6.66 11 7.32 11 8 C7.7 7.01 4.4 6.02 1 5 C0.67 3.35 0.34 1.7 0 0 Z " fill="#16301B" transform="translate(765,857)"/>
<path d="M0 0 C1.27609323 0.90933009 2.54565553 1.82782853 3.8125 2.75 C4.87404297 3.51570313 4.87404297 3.51570313 5.95703125 4.296875 C8.02977691 6.02482358 9.47375854 7.78526476 11 10 C10.01 10 9.02 10 8 10 C6.62926214 8.36395804 5.29944744 6.69321939 4 5 C3.2575 4.443125 2.515 3.88625 1.75 3.3125 C1.1725 2.879375 0.595 2.44625 0 2 C0 1.34 0 0.68 0 0 Z " fill="#15331D" transform="translate(481,330)"/>
<path d="M0 0 C0.66 0.33 1.32 0.66 2 1 C2 3.31 2 5.62 2 8 C1.34 8 0.68 8 0 8 C-0.33 9.32 -0.66 10.64 -1 12 C-1.08159574 7.83861737 -0.98248524 4.0527516 0 0 Z " fill="#02270D" transform="translate(478,550)"/>
<path d="M0 0 C1.32 0.66 2.64 1.32 4 2 C2.02 3.32 0.04 4.64 -2 6 C-2 2 -2 2 0 0 Z " fill="#0B361B" transform="translate(335,531)"/>
<path d="M0 0 C1.485 0.99 1.485 0.99 3 2 C2.34 4.64 1.68 7.28 1 10 C0.34 9.67 -0.32 9.34 -1 9 C-1.125 2.25 -1.125 2.25 0 0 Z " fill="#073317" transform="translate(361,219)"/>
<path d="M0 0 C2.64 0.33 5.28 0.66 8 1 C8 1.66 8 2.32 8 3 C8.66 3 9.32 3 10 3 C10 3.66 10 4.32 10 5 C8.51800098 4.55090939 7.03944764 4.09043436 5.5625 3.625 C4.73878906 3.36976563 3.91507813 3.11453125 3.06640625 2.8515625 C1 2 1 2 0 0 Z " fill="#13321B" transform="translate(800,817)"/>
<path d="M0 0 C0.33 0.99 0.66 1.98 1 3 C0.01 4.485 0.01 4.485 -1 6 C-1.66 6 -2.32 6 -3 6 C-3.66 7.32 -4.32 8.64 -5 10 C-4.49701212 5.59885603 -2.91227269 3.28804981 0 0 Z " fill="#F3F4EC" transform="translate(460,765)"/>
<path d="M0 0 C6.625 -0.25 6.625 -0.25 10 2 C5.545 2.495 5.545 2.495 1 3 C0.67 2.01 0.34 1.02 0 0 Z " fill="#042A10" transform="translate(393,745)"/>
<path d="M0 0 C3.91402949 1.26941497 5.79072873 2.51167694 8 6 C5 6 5 6 3.61328125 4.6875 C2.40885417 3.125 1.20442708 1.5625 0 0 Z " fill="#20412A" transform="translate(823,762)"/>
<path d="M0 0 C0.66 0.66 1.32 1.32 2 2 C-2.32734391 4.22923777 -5.28400182 3.92470553 -10 3 C-10 2.67 -10 2.34 -10 2 C-8.37828761 1.61102839 -6.75245075 1.23921702 -5.125 0.875 C-4.22007812 0.66617188 -3.31515625 0.45734375 -2.3828125 0.2421875 C-1.20332031 0.12230469 -1.20332031 0.12230469 0 0 Z " fill="#CBD6C5" transform="translate(666,631)"/>
</svg>
